<svg xmlns="http://www.w3.org/2000/svg" xmlns:xlink="http://www.w3.org/1999/xlink" width="500" zoomAndPan="magnify" viewBox="0 0 375 374.999991" height="500" preserveAspectRatio="xMidYMid meet" version="1.0"><defs><clipPath id="896cb9b5ae"><path d="M 259 55 L 331 55 L 331 117 L 259 117 Z M 259 55 " clip-rule="nonzero"/></clipPath><clipPath id="bfa30d6534"><path d="M 265.203125 45.828125 L 330.359375 57.058594 L 319.128906 122.214844 L 253.972656 110.984375 Z M 265.203125 45.828125 " clip-rule="nonzero"/></clipPath><clipPath id="d0d7961c8c"><path d="M 265.203125 45.828125 L 330.359375 57.058594 L 319.128906 122.214844 L 253.972656 110.984375 Z M 265.203125 45.828125 " clip-rule="nonzero"/></clipPath></defs><path fill="#2df8bb" d="M 192.304688 238.660156 C 157.269531 251.410156 124.933594 260.84375 101.515625 265.625 C 79.96875 270.011719 65.976562 270.484375 64.339844 265.988281 C 62.761719 261.652344 72.953125 253.46875 90.996094 243.503906 C 92.792969 242.511719 93.8125 240.515625 93.53125 238.484375 C 93.527344 238.449219 93.523438 238.414062 93.519531 238.378906 C 93.058594 234.996094 89.441406 233.039062 86.378906 234.542969 C 39.839844 257.335938 11.007812 278.148438 14.789062 288.539062 C 18.660156 299.179688 55.816406 296.203125 108.105469 282.945312 C 110.003906 282.464844 112.019531 283.121094 113.234375 284.65625 C 137.917969 315.78125 180.644531 329.15625 220.027344 314.820312 C 269.800781 296.707031 281.4375 260.417969 282.589844 233.570312 C 283.253906 218.097656 278.183594 207.402344 192.304688 238.660156 Z M 192.304688 238.660156 " fill-opacity="1" fill-rule="nonzero"/><path fill="#2df8bb" d="M 360.355469 162.765625 C 356.402344 151.902344 317.8125 155.226562 263.84375 169.175781 C 239.5 136.246094 195.546875 121.757812 155.113281 136.472656 C 113.371094 151.667969 98.859375 180.796875 94.371094 204.605469 C 91.246094 221.167969 93.84375 236.003906 179.933594 204.667969 C 214.421875 192.117188 246.289062 182.789062 269.617188 177.941406 C 291.777344 173.328125 306.234375 172.761719 307.898438 177.339844 C 309.359375 181.351562 300.746094 188.652344 285.152344 197.625 C 281.699219 199.613281 279.957031 203.601562 280.722656 207.515625 C 280.734375 207.578125 280.75 207.640625 280.761719 207.703125 C 281.929688 213.714844 288.574219 216.890625 294.046875 214.148438 C 337.46875 192.382812 363.988281 172.746094 360.355469 162.765625 Z M 360.355469 162.765625 " fill-opacity="1" fill-rule="nonzero"/><g clip-path="url(#896cb9b5ae)"><g clip-path="url(#bfa30d6534)"><g clip-path="url(#d0d7961c8c)"><path fill="#dbdbdb" d="M 323.789062 55.925781 C 312.824219 54.035156 296.8125 59.023438 284.703125 70.253906 L 276.511719 68.84375 C 270.589844 67.824219 266.4375 71.65625 263.296875 75.925781 L 259.089844 81.640625 L 273.867188 84.1875 L 280.214844 93.179688 L 286.566406 102.175781 L 284.019531 116.949219 L 290.8125 114.898438 C 295.886719 113.367188 300.890625 110.738281 301.910156 104.816406 L 303.320312 96.625 C 317.957031 88.976562 328.015625 75.558594 329.90625 64.589844 L 331.179688 57.199219 Z M 308.078125 69.015625 C 310.902344 69.503906 312.796875 72.1875 312.3125 75.011719 C 311.824219 77.835938 309.140625 79.734375 306.316406 79.246094 C 303.492188 78.757812 301.597656 76.074219 302.082031 73.25 C 302.570312 70.425781 305.253906 68.53125 308.078125 69.015625 Z M 269.546875 93.976562 L 266.546875 96.089844 C 262.21875 99.148438 259.230469 107.996094 259.230469 107.996094 C 259.230469 107.996094 268.089844 108.480469 272.898438 105.085938 L 275.894531 102.96875 Z M 269.546875 93.976562 " fill-opacity="1" fill-rule="nonzero"/></g></g></g></svg>