<svg xmlns="http://www.w3.org/2000/svg" xmlns:xlink="http://www.w3.org/1999/xlink" width="500" zoomAndPan="magnify" viewBox="0 0 375 374.999991" height="500" preserveAspectRatio="xMidYMid meet" version="1.0"><defs><filter x="0%" y="0%" width="100%" height="100%" id="5be7483a84"><feColorMatrix values="0 0 0 0 1 0 0 0 0 1 0 0 0 0 1 0 0 0 1 0" color-interpolation-filters="sRGB"/></filter><clipPath id="9b6c6111be"><path d="M 53.960938 26.785156 L 320.960938 26.785156 L 320.960938 348.535156 L 53.960938 348.535156 Z M 53.960938 26.785156 " clip-rule="nonzero"/></clipPath><mask id="be56034bc5"><g filter="url(#5be7483a84)"><rect x="-37.5" width="450" fill="#000000" y="-37.499999" height="449.999989" fill-opacity="0.6"/></g></mask><clipPath id="47a133ff2f"><path d="M 1 0.199219 L 120.679688 0.199219 L 120.679688 251 L 1 251 Z M 1 0.199219 " clip-rule="nonzero"/></clipPath><clipPath id="252d558aa9"><rect x="0" width="121" y="0" height="252"/></clipPath><mask id="c3a39406fa"><g filter="url(#5be7483a84)"><rect x="-37.5" width="450" fill="#000000" y="-37.499999" height="449.999989" fill-opacity="0.6"/></g></mask><clipPath id="e7a357acda"><path d="M 0.0390625 0.238281 L 221.558594 0.238281 L 221.558594 153 L 0.0390625 153 Z M 0.0390625 0.238281 " clip-rule="nonzero"/></clipPath><clipPath id="b11e8b9f21"><rect x="0" width="222" y="0" height="154"/></clipPath><mask id="4f8d2da0cc"><g filter="url(#5be7483a84)"><rect x="-37.5" width="450" fill="#000000" y="-37.499999" height="449.999989" fill-opacity="0.6"/></g></mask><clipPath id="e2dcffe855"><path d="M 0.238281 1 L 201.601562 1 L 201.601562 62 L 0.238281 62 Z M 0.238281 1 " clip-rule="nonzero"/></clipPath><clipPath id="8e4142237c"><rect x="0" width="202" y="0" height="63"/></clipPath></defs><g clip-path="url(#9b6c6111be)"><path fill="#dbdbdb" d="M 312.222656 257.378906 C 309.980469 252.570312 307.609375 247.816406 305.175781 243.25 C 297 227.914062 288.976562 216.308594 281.332031 208.757812 C 272.546875 200.078125 263.328125 194.203125 254.644531 190.246094 L 254.644531 183.9375 C 274.226562 164.617188 276.75 139.070312 276.75 118.933594 C 276.75 94.503906 267.625 71.484375 251.046875 54.117188 C 234.214844 36.484375 211.761719 26.769531 187.816406 26.769531 C 163.875 26.769531 141.417969 36.484375 124.585938 54.117188 C 108.011719 71.484375 98.882812 94.503906 98.882812 118.9375 C 98.882812 139.070312 101.40625 164.617188 120.988281 183.941406 L 120.988281 190.246094 C 112.304688 194.207031 103.089844 200.078125 94.300781 208.757812 C 76.972656 225.871094 62.289062 259.660156 60.671875 263.457031 L 53.988281 279.144531 L 187.816406 348.191406 L 321.023438 279.996094 C 321.023438 279.996094 315.792969 265.027344 312.222656 257.378906 Z M 312.222656 257.378906 " fill-opacity="1" fill-rule="nonzero"/></g><path fill="#1fdfa5" d="M 177.851562 261.992188 L 177.933594 324.734375 L 132.691406 306.277344 L 121.804688 281.527344 L 122.113281 281.21875 C 134.339844 268.992188 165.984375 263.25 177.144531 262.070312 Z M 253.863281 281.558594 C 253.253906 280.894531 242.921875 271.714844 234.382812 268.25 C 225.433594 264.621094 204.25 261.171875 199.359375 260.570312 L 198.648438 260.484375 L 197.546875 325.902344 L 243.253906 302.832031 L 254.164062 281.894531 Z M 233.054688 153.199219 C 220.550781 160.597656 204.558594 164.65625 187.816406 164.65625 C 171.046875 164.65625 155.023438 160.582031 142.507812 153.15625 L 142.511719 153.175781 L 141.203125 152.382812 C 140.738281 152.09375 140.285156 151.796875 139.832031 151.5 L 139.605469 151.351562 C 138.855469 150.851562 138.09375 150.316406 137.273438 149.714844 L 136.894531 149.433594 C 136.042969 148.796875 135.34375 148.25 134.71875 147.730469 L 134.539062 147.582031 L 134.480469 147.460938 C 134.195312 146.882812 133.921875 146.300781 133.65625 145.710938 L 133.421875 145.179688 C 133.246094 144.773438 133.066406 144.367188 132.898438 143.957031 C 132.824219 143.785156 132.609375 143.242188 132.609375 143.242188 C 132.464844 142.886719 132.324219 142.527344 132.183594 142.167969 C 132.085938 141.90625 131.988281 141.648438 131.894531 141.386719 C 131.765625 141.039062 131.640625 140.691406 131.519531 140.339844 C 131.425781 140.074219 131.335938 139.804688 131.246094 139.535156 C 131.128906 139.179688 131.015625 138.824219 130.902344 138.46875 L 130.875 138.375 C 130.800781 138.140625 130.726562 137.90625 130.65625 137.667969 C 130.542969 137.292969 130.4375 136.910156 130.332031 136.53125 L 130.269531 136.316406 C 130.222656 136.140625 130.171875 135.960938 130.125 135.785156 C 130.003906 135.328125 129.890625 134.867188 129.777344 134.40625 L 129.644531 133.875 C 129.5 133.246094 129.363281 132.613281 129.234375 131.976562 L 129.84375 131.757812 L 129.214844 131.886719 L 129.089844 131.222656 C 129.007812 130.789062 128.9375 130.414062 128.871094 130.03125 L 128.710938 129.007812 C 128.664062 128.703125 128.617188 128.402344 128.574219 128.097656 L 128.554688 127.96875 C 128.519531 127.703125 128.484375 127.4375 128.449219 127.167969 L 128.429688 126.980469 C 128.394531 126.695312 128.359375 126.40625 128.328125 126.117188 L 128.308594 125.953125 C 128.28125 125.675781 128.25 125.394531 128.226562 125.113281 L 128.21875 125.027344 C 128.1875 124.683594 128.164062 124.390625 128.140625 124.097656 C 128.140625 124.097656 128.078125 123.289062 128.066406 123.066406 L 128.0625 123 C 128.042969 122.652344 128.027344 122.332031 128.011719 122.011719 C 128.011719 122.011719 127.972656 121.15625 127.96875 121.011719 L 127.964844 120.929688 C 127.960938 120.71875 127.957031 120.503906 127.957031 120.292969 L 127.945312 119.632812 C 127.9375 119.402344 127.933594 119.171875 127.933594 118.9375 C 127.933594 109.847656 129.753906 101.082031 133.339844 92.878906 L 133.421875 92.691406 C 133.8125 91.808594 134.144531 91.085938 134.476562 90.410156 L 134.539062 90.285156 L 134.644531 90.195312 C 147.6875 79.402344 167.066406 73.210938 187.820312 73.210938 C 207.804688 73.210938 226.726562 79.042969 239.730469 89.210938 L 240.121094 89.515625 C 240.414062 89.742188 240.707031 89.964844 240.984375 90.195312 L 241.09375 90.285156 L 241.152344 90.40625 C 241.449219 91.011719 241.730469 91.621094 242.007812 92.234375 L 242.113281 92.476562 C 242.367188 93.042969 242.609375 93.617188 242.847656 94.191406 C 246.074219 102.0625 247.699219 110.367188 247.699219 118.9375 C 247.699219 119.632812 247.683594 120.324219 247.664062 121.011719 C 247.660156 121.15625 247.632812 121.699219 247.632812 121.699219 C 247.613281 122.15625 247.59375 122.613281 247.566406 123.066406 C 247.550781 123.300781 247.507812 123.882812 247.507812 123.882812 C 247.476562 124.292969 247.445312 124.707031 247.40625 125.117188 C 247.378906 125.394531 247.351562 125.675781 247.320312 125.953125 C 247.28125 126.359375 247.230469 126.765625 247.179688 127.171875 C 247.148438 127.4375 247.113281 127.707031 247.078125 127.972656 C 247.015625 128.410156 246.949219 128.847656 246.878906 129.285156 C 246.878906 129.285156 246.800781 129.796875 246.773438 129.953125 C 246.675781 130.535156 246.566406 131.117188 246.453125 131.699219 L 246.417969 131.890625 C 246.152344 133.214844 245.835938 134.5625 245.480469 135.894531 L 245.410156 136.152344 C 245.261719 136.703125 245.101562 137.253906 244.9375 137.796875 L 244.808594 138.222656 C 244.65625 138.714844 244.5 139.207031 244.335938 139.695312 L 244.179688 140.15625 C 244.011719 140.636719 243.84375 141.113281 243.667969 141.589844 L 243.503906 142.023438 C 243.3125 142.53125 243.117188 143.03125 242.914062 143.527344 L 242.785156 143.84375 C 242.277344 145.074219 241.726562 146.292969 241.15625 147.460938 L 241.09375 147.585938 L 240.757812 147.859375 C 240.191406 148.320312 239.585938 148.796875 238.90625 149.308594 C 238.691406 149.46875 238.476562 149.628906 238.257812 149.789062 C 237.484375 150.359375 236.757812 150.867188 236.042969 151.34375 L 235.792969 151.507812 C 235.347656 151.800781 234.898438 152.09375 234.441406 152.382812 L 233.042969 153.253906 Z M 151.867188 140.617188 C 151.800781 140.3125 151.730469 139.96875 151.65625 139.601562 C 151.578125 139.191406 151.492188 138.753906 151.386719 138.296875 C 151.273438 137.808594 151.171875 137.28125 151.074219 136.722656 L 150.746094 135.039062 C 150.683594 134.667969 150.625 134.3125 150.5625 133.945312 C 150.410156 133.070312 150.253906 132.164062 150.125 131.207031 C 150.03125 130.617188 149.9375 129.933594 149.847656 129.136719 C 149.8125 128.800781 149.765625 128.464844 149.71875 128.125 L 149.574219 126.644531 C 149.550781 126.398438 149.53125 126.15625 149.5 125.910156 L 149.414062 124.761719 C 149.351562 124.015625 149.3125 123.257812 149.273438 122.492188 C 149.195312 120.90625 149.164062 119.34375 149.179688 117.832031 C 149.175781 117.09375 149.191406 116.28125 149.226562 115.363281 C 149.25 114.632812 149.285156 113.90625 149.324219 113.183594 C 149.410156 111.730469 149.535156 110.210938 149.691406 108.664062 C 149.839844 107.273438 150.007812 105.800781 150.214844 104.414062 C 150.363281 103.285156 150.535156 102.214844 150.707031 101.183594 L 150.804688 100.589844 C 151.246094 98.015625 151.636719 96.054688 151.851562 95 C 151.195312 95.875 150.042969 97.554688 148.855469 99.941406 C 147.617188 102.464844 146.609375 105.25 145.941406 107.988281 C 145.71875 108.878906 145.558594 109.621094 145.433594 110.328125 C 145.285156 111.0625 145.160156 111.855469 145.050781 112.769531 C 144.9375 113.621094 144.863281 114.480469 144.800781 115.277344 L 144.773438 115.863281 C 144.742188 116.507812 144.714844 117.15625 144.703125 117.804688 L 144.714844 118.320312 C 144.734375 119.664062 144.78125 121.253906 144.984375 122.832031 L 145.132812 124.09375 L 145.34375 125.289062 L 145.566406 126.5 C 145.617188 126.746094 145.683594 127.011719 145.75 127.273438 L 145.839844 127.644531 C 146.007812 128.347656 146.199219 129.144531 146.449219 129.867188 L 146.578125 130.273438 C 146.765625 130.871094 146.941406 131.4375 147.164062 131.972656 C 147.261719 132.21875 147.355469 132.460938 147.445312 132.699219 C 147.609375 133.128906 147.765625 133.535156 147.949219 133.917969 L 148.800781 135.722656 C 149.386719 136.804688 149.9375 137.820312 150.488281 138.644531 L 150.839844 139.164062 C 151.21875 139.722656 151.550781 140.214844 151.867188 140.617188 Z M 151.867188 140.617188 " fill-opacity="1" fill-rule="nonzero"/><path fill="#1fdfa5" d="M 234.097656 151.835938 C 234.554688 151.550781 234.996094 151.261719 235.441406 150.96875 C 235.523438 150.914062 235.605469 150.863281 235.6875 150.808594 C 236.4375 150.308594 237.164062 149.792969 237.878906 149.269531 C 238.09375 149.113281 238.304688 148.953125 238.519531 148.792969 C 239.140625 148.324219 239.753906 147.847656 240.347656 147.359375 C 240.421875 147.300781 240.503906 147.238281 240.578125 147.179688 C 241.152344 146.003906 241.6875 144.808594 242.191406 143.59375 C 242.234375 143.492188 242.273438 143.386719 242.316406 143.285156 C 242.519531 142.792969 242.714844 142.296875 242.902344 141.796875 C 242.957031 141.652344 243.011719 141.507812 243.0625 141.367188 C 243.238281 140.894531 243.40625 140.421875 243.570312 139.949219 C 243.621094 139.796875 243.675781 139.644531 243.726562 139.488281 C 243.886719 139.007812 244.042969 138.519531 244.191406 138.035156 C 244.234375 137.894531 244.28125 137.753906 244.324219 137.613281 C 244.484375 137.074219 244.640625 136.527344 244.789062 135.984375 C 244.8125 135.898438 244.835938 135.8125 244.859375 135.730469 C 245.210938 134.421875 245.519531 133.097656 245.789062 131.761719 C 245.792969 131.734375 245.800781 131.707031 245.804688 131.675781 C 245.808594 131.660156 245.8125 131.640625 245.816406 131.621094 C 245.820312 131.605469 245.820312 131.589844 245.824219 131.570312 C 245.9375 130.996094 246.042969 130.421875 246.140625 129.839844 C 246.179688 129.621094 246.210938 129.402344 246.246094 129.183594 C 246.3125 128.75 246.378906 128.316406 246.441406 127.882812 C 246.476562 127.621094 246.511719 127.355469 246.542969 127.089844 C 246.59375 126.6875 246.640625 126.289062 246.683594 125.886719 C 246.710938 125.609375 246.742188 125.332031 246.765625 125.054688 C 246.804688 124.648438 246.835938 124.242188 246.867188 123.832031 C 246.886719 123.566406 246.910156 123.296875 246.925781 123.027344 C 246.953125 122.578125 246.972656 122.125 246.992188 121.671875 C 247 121.445312 247.015625 121.21875 247.019531 120.992188 C 247.042969 120.3125 247.054688 119.625 247.054688 118.9375 C 247.054688 110.253906 245.351562 101.992188 242.277344 94.492188 C 242.269531 94.472656 242.261719 94.457031 242.253906 94.4375 C 242.019531 93.867188 241.777344 93.296875 241.527344 92.734375 C 241.492188 92.65625 241.457031 92.578125 241.421875 92.5 C 241.148438 91.894531 240.867188 91.289062 240.578125 90.691406 C 240.175781 90.359375 239.75 90.042969 239.335938 89.71875 C 226.921875 80.011719 208.453125 73.855469 187.820312 73.855469 C 166.492188 73.855469 147.464844 80.417969 135.054688 90.691406 C 134.691406 91.433594 134.347656 92.191406 134.011719 92.949219 C 133.984375 93.011719 133.957031 93.074219 133.929688 93.136719 C 130.492188 100.992188 128.578125 109.726562 128.578125 118.9375 C 128.578125 119.28125 128.589844 119.621094 128.59375 119.960938 C 128.597656 120.277344 128.601562 120.59375 128.609375 120.910156 C 128.609375 120.9375 128.609375 120.964844 128.609375 120.992188 C 128.617188 121.21875 128.628906 121.445312 128.640625 121.671875 C 128.644531 121.777344 128.652344 121.878906 128.65625 121.984375 C 128.667969 122.300781 128.683594 122.617188 128.703125 122.933594 C 128.703125 122.964844 128.707031 122.996094 128.707031 123.027344 C 128.722656 123.296875 128.746094 123.566406 128.765625 123.832031 C 128.769531 123.90625 128.777344 123.976562 128.78125 124.046875 C 128.804688 124.339844 128.828125 124.628906 128.855469 124.917969 C 128.859375 124.964844 128.863281 125.011719 128.867188 125.054688 C 128.890625 125.332031 128.921875 125.609375 128.949219 125.886719 C 128.957031 125.941406 128.964844 125.996094 128.96875 126.050781 C 129 126.335938 129.035156 126.621094 129.066406 126.902344 C 129.074219 126.964844 129.082031 127.027344 129.089844 127.089844 C 129.125 127.355469 129.15625 127.621094 129.191406 127.882812 C 129.199219 127.925781 129.207031 127.96875 129.210938 128.007812 C 129.253906 128.3125 129.300781 128.609375 129.347656 128.910156 C 129.359375 129 129.371094 129.09375 129.386719 129.183594 C 129.421875 129.402344 129.453125 129.625 129.492188 129.84375 C 129.496094 129.871094 129.503906 129.898438 129.507812 129.925781 C 129.574219 130.320312 129.648438 130.714844 129.726562 131.105469 C 129.757812 131.277344 129.785156 131.453125 129.820312 131.625 C 129.828125 131.667969 129.835938 131.714844 129.847656 131.761719 C 129.851562 131.792969 129.859375 131.820312 129.863281 131.851562 C 129.992188 132.480469 130.128906 133.109375 130.273438 133.734375 C 130.316406 133.90625 130.359375 134.082031 130.402344 134.253906 C 130.515625 134.710938 130.625 135.167969 130.746094 135.621094 C 130.8125 135.867188 130.882812 136.113281 130.953125 136.359375 C 131.058594 136.734375 131.164062 137.113281 131.273438 137.488281 C 131.355469 137.75 131.4375 138.015625 131.519531 138.277344 C 131.628906 138.628906 131.742188 138.984375 131.859375 139.332031 C 131.945312 139.601562 132.039062 139.867188 132.128906 140.128906 C 132.25 140.476562 132.375 140.820312 132.5 141.164062 C 132.59375 141.425781 132.691406 141.683594 132.789062 141.941406 C 132.921875 142.296875 133.0625 142.652344 133.207031 143.003906 C 133.300781 143.242188 133.394531 143.476562 133.492188 143.710938 C 133.660156 144.117188 133.835938 144.519531 134.011719 144.921875 C 134.089844 145.097656 134.164062 145.273438 134.246094 145.449219 C 134.507812 146.03125 134.777344 146.609375 135.058594 147.179688 C 135.082031 147.199219 135.105469 147.21875 135.128906 147.238281 C 135.8125 147.800781 136.519531 148.351562 137.246094 148.894531 C 137.378906 148.996094 137.515625 149.097656 137.652344 149.199219 C 138.40625 149.75 139.171875 150.292969 139.960938 150.816406 C 140.035156 150.867188 140.113281 150.914062 140.1875 150.960938 C 140.632812 151.257812 141.082031 151.550781 141.542969 151.835938 C 141.539062 151.828125 141.539062 151.820312 141.539062 151.8125 C 153.644531 159.375 169.914062 164.015625 187.820312 164.015625 C 205.726562 164.015625 221.996094 159.375 234.105469 151.808594 C 234.101562 151.816406 234.101562 151.828125 234.097656 151.835938 Z M 151.5 141.179688 C 151.019531 140.609375 150.539062 139.859375 149.957031 139.003906 C 149.378906 138.144531 148.828125 137.121094 148.21875 135.996094 C 147.949219 135.421875 147.664062 134.820312 147.371094 134.195312 C 147.070312 133.574219 146.847656 132.898438 146.570312 132.21875 C 146.289062 131.535156 146.078125 130.8125 145.84375 130.078125 C 145.589844 129.34375 145.40625 128.578125 145.214844 127.796875 C 145.121094 127.40625 145.019531 127.015625 144.933594 126.613281 C 144.859375 126.210938 144.789062 125.808594 144.714844 125.402344 C 144.640625 124.992188 144.570312 124.582031 144.496094 124.167969 C 144.449219 123.753906 144.398438 123.335938 144.347656 122.914062 C 144.152344 121.410156 144.09375 119.867188 144.070312 118.328125 C 144.070312 118.152344 144.066406 117.976562 144.0625 117.796875 C 144.074219 116.941406 144.125 116.082031 144.160156 115.230469 C 144.226562 114.378906 144.300781 113.53125 144.414062 112.695312 C 144.515625 111.855469 144.636719 111.03125 144.804688 110.222656 C 144.941406 109.410156 145.121094 108.613281 145.316406 107.835938 C 146.074219 104.726562 147.160156 101.941406 148.28125 99.65625 C 149.414062 97.378906 150.578125 95.601562 151.484375 94.425781 C 152.386719 93.25 153.003906 92.660156 153.003906 92.660156 C 153.003906 92.660156 152.8125 93.488281 152.53125 94.90625 C 152.234375 96.324219 151.847656 98.328125 151.4375 100.695312 C 151.246094 101.882812 151.027344 103.160156 150.847656 104.507812 C 150.652344 105.851562 150.488281 107.269531 150.328125 108.726562 C 150.183594 110.1875 150.058594 111.691406 149.964844 113.21875 C 149.925781 113.9375 149.894531 114.660156 149.867188 115.386719 C 149.839844 116.203125 149.820312 117.019531 149.820312 117.839844 C 149.804688 119.386719 149.839844 120.933594 149.914062 122.453125 C 149.953125 123.214844 149.992188 123.96875 150.054688 124.714844 C 150.082031 125.089844 150.109375 125.460938 150.136719 125.828125 C 150.183594 126.195312 150.210938 126.5625 150.25 126.925781 C 150.28125 127.289062 150.316406 127.648438 150.351562 128.007812 C 150.398438 128.363281 150.449219 128.714844 150.488281 129.066406 C 150.566406 129.769531 150.65625 130.457031 150.765625 131.121094 C 150.941406 132.46875 151.183594 133.730469 151.378906 134.917969 C 151.492188 135.507812 151.601562 136.074219 151.707031 136.609375 C 151.804688 137.15625 151.902344 137.671875 152.011719 138.152344 C 152.234375 139.117188 152.375 139.992188 152.546875 140.691406 C 152.867188 142.101562 153.007812 142.953125 153.007812 142.953125 C 153.007812 142.953125 152.433594 142.335938 151.5 141.179688 Z M 177.210938 262.707031 L 177.289062 323.777344 L 133.175781 305.777344 L 122.566406 281.671875 C 134.78125 269.457031 166.269531 263.867188 177.210938 262.707031 Z M 253.386719 281.992188 L 242.78125 302.351562 L 198.210938 324.851562 L 199.28125 261.207031 C 204.402344 261.839844 225.328125 265.269531 234.140625 268.847656 C 242.78125 272.351562 253.023438 281.597656 253.386719 281.992188 Z M 253.386719 281.992188 " fill-opacity="1" fill-rule="nonzero"/><path fill="#ffffff" d="M 224.769531 72.410156 C 224.769531 72.410156 218.734375 69.917969 209.515625 67.847656 C 209.71875 67.125 209.941406 66.402344 210.1875 65.675781 C 210.753906 64.015625 211.382812 62.375 212.015625 60.738281 C 221.546875 65.445312 224.769531 72.410156 224.769531 72.410156 Z M 196.027344 65.640625 C 195.972656 65.167969 195.921875 64.707031 195.871094 64.261719 C 195.585938 61.742188 195.386719 59.171875 195.464844 56.625 C 193.09375 56.484375 190.550781 56.488281 187.816406 56.671875 C 159.023438 58.589844 153.746094 72.410156 153.746094 72.410156 C 167.589844 65.160156 183.0625 64.324219 196.027344 65.640625 Z M 150.328125 108.726562 C 150.488281 107.269531 150.652344 105.851562 150.847656 104.507812 C 151.027344 103.15625 151.246094 101.882812 151.4375 100.695312 C 151.847656 98.328125 152.234375 96.324219 152.53125 94.90625 C 152.8125 93.488281 153.003906 92.65625 153.003906 92.65625 C 153.003906 92.65625 152.386719 93.25 151.484375 94.425781 C 150.578125 95.601562 149.414062 97.378906 148.28125 99.65625 C 147.160156 101.9375 146.074219 104.726562 145.316406 107.835938 C 145.121094 108.613281 144.941406 109.40625 144.804688 110.222656 C 144.636719 111.03125 144.515625 111.855469 144.414062 112.695312 C 144.300781 113.53125 144.226562 114.378906 144.160156 115.230469 C 144.125 116.082031 144.074219 116.941406 144.0625 117.796875 C 144.066406 117.976562 144.070312 118.152344 144.070312 118.328125 C 144.09375 119.867188 144.152344 121.410156 144.347656 122.914062 C 144.398438 123.335938 144.445312 123.753906 144.496094 124.167969 C 144.570312 124.582031 144.640625 124.992188 144.714844 125.402344 C 144.785156 125.808594 144.859375 126.210938 144.933594 126.613281 C 145.019531 127.011719 145.121094 127.40625 145.214844 127.796875 C 145.40625 128.578125 145.589844 129.34375 145.84375 130.078125 C 146.078125 130.816406 146.289062 131.535156 146.570312 132.21875 C 146.847656 132.898438 147.070312 133.574219 147.371094 134.195312 C 147.664062 134.820312 147.949219 135.417969 148.21875 135.996094 C 148.828125 137.121094 149.378906 138.144531 149.957031 139.003906 C 150.539062 139.859375 151.019531 140.609375 151.5 141.179688 C 152.433594 142.335938 153.007812 142.953125 153.007812 142.953125 C 153.007812 142.953125 152.867188 142.101562 152.546875 140.691406 C 152.375 139.992188 152.234375 139.117188 152.011719 138.15625 C 151.902344 137.671875 151.804688 137.15625 151.707031 136.609375 C 151.601562 136.074219 151.492188 135.507812 151.378906 134.917969 C 151.183594 133.730469 150.941406 132.46875 150.765625 131.125 C 150.65625 130.457031 150.566406 129.769531 150.488281 129.066406 C 150.449219 128.714844 150.398438 128.363281 150.351562 128.007812 C 150.316406 127.652344 150.28125 127.289062 150.246094 126.925781 C 150.210938 126.5625 150.183594 126.195312 150.136719 125.828125 C 150.109375 125.460938 150.082031 125.089844 150.054688 124.714844 C 149.992188 123.96875 149.953125 123.214844 149.914062 122.453125 C 149.839844 120.933594 149.804688 119.386719 149.820312 117.839844 C 149.816406 117.019531 149.835938 116.203125 149.867188 115.390625 C 149.890625 114.664062 149.925781 113.9375 149.964844 113.21875 C 150.058594 111.691406 150.183594 110.1875 150.328125 108.726562 Z M 185.058594 222.808594 L 179.300781 222.875 L 180.378906 315.480469 L 186.136719 315.414062 Z M 150.453125 219.5 C 149.277344 219.476562 147.960938 219.574219 146.515625 219.667969 C 145.078125 219.824219 143.511719 219.992188 141.882812 220.320312 C 141.058594 220.453125 140.226562 220.652344 139.378906 220.859375 C 138.523438 221.046875 137.660156 221.289062 136.792969 221.554688 C 135.914062 221.804688 135.035156 222.089844 134.15625 222.417969 C 133.714844 222.574219 133.269531 222.734375 132.820312 222.894531 C 132.382812 223.066406 131.945312 223.261719 131.503906 223.441406 C 130.617188 223.808594 129.730469 224.1875 128.867188 224.625 C 127.988281 225.039062 127.128906 225.496094 126.269531 225.953125 C 125.410156 226.410156 124.59375 226.933594 123.753906 227.417969 C 122.925781 227.921875 122.132812 228.46875 121.339844 229.003906 C 120.558594 229.554688 119.777344 230.09375 119.050781 230.683594 C 118.304688 231.253906 117.582031 231.828125 116.902344 232.429688 C 114.132812 234.785156 111.828125 237.285156 110.035156 239.554688 C 108.246094 241.832031 106.972656 243.886719 106.1875 245.378906 C 105.785156 246.117188 105.519531 246.734375 105.332031 247.140625 C 105.148438 247.554688 105.070312 247.785156 105.070312 247.785156 C 105.070312 247.785156 105.800781 247.148438 107.078125 246.101562 C 108.351562 245.050781 110.171875 243.589844 112.367188 241.914062 C 113.472656 241.078125 114.664062 240.1875 115.941406 239.273438 C 117.214844 238.359375 118.566406 237.421875 119.980469 236.480469 C 121.386719 235.53125 122.878906 234.613281 124.382812 233.675781 C 125.90625 232.769531 127.449219 231.84375 129.035156 231 C 129.824219 230.570312 130.605469 230.128906 131.410156 229.734375 C 131.808594 229.53125 132.207031 229.332031 132.601562 229.117188 C 133 228.925781 133.398438 228.730469 133.796875 228.535156 C 135.390625 227.761719 136.972656 227.023438 138.527344 226.355469 C 138.917969 226.1875 139.296875 226.011719 139.683594 225.851562 C 140.070312 225.703125 140.453125 225.546875 140.832031 225.386719 C 141.210938 225.226562 141.582031 225.070312 141.953125 224.917969 C 142.328125 224.773438 142.699219 224.632812 143.0625 224.492188 C 144.515625 223.902344 145.921875 223.417969 147.21875 222.929688 C 147.871094 222.703125 148.5 222.488281 149.097656 222.28125 C 149.695312 222.0625 150.265625 221.867188 150.808594 221.699219 C 151.890625 221.355469 152.832031 220.996094 153.621094 220.761719 C 155.199219 220.261719 156.113281 219.917969 156.113281 219.917969 C 156.113281 219.917969 155.164062 219.769531 153.484375 219.613281 C 152.644531 219.519531 151.632812 219.523438 150.453125 219.5 Z M 150.453125 219.5 " fill-opacity="1" fill-rule="nonzero"/><g mask="url(#be56034bc5)"><g transform="matrix(1, 0, 0, 1, 127, 73)"><g clip-path="url(#252d558aa9)"><g clip-path="url(#47a133ff2f)"><path fill="#0d1334" d="M 108.257812 47.558594 C 96.042969 39.5625 79.296875 34.625 60.820312 34.625 C 46.75 34.625 33.691406 37.492188 22.867188 42.386719 C 22.894531 41.660156 22.925781 40.9375 22.964844 40.21875 C 23.058594 38.691406 23.183594 37.1875 23.328125 35.726562 C 23.488281 34.269531 23.652344 32.851562 23.847656 31.507812 C 24.027344 30.15625 24.246094 28.882812 24.4375 27.695312 C 24.847656 25.328125 25.234375 23.324219 25.53125 21.90625 C 25.8125 20.488281 26.003906 19.660156 26.003906 19.660156 C 26.003906 19.660156 25.386719 20.25 24.484375 21.425781 C 23.578125 22.605469 22.414062 24.378906 21.28125 26.65625 C 20.160156 28.941406 19.074219 31.726562 18.316406 34.835938 C 18.121094 35.613281 17.941406 36.410156 17.804688 37.222656 C 17.636719 38.03125 17.515625 38.855469 17.414062 39.695312 C 17.300781 40.53125 17.226562 41.378906 17.160156 42.230469 C 17.125 43.082031 17.074219 43.941406 17.0625 44.796875 C 17.066406 44.976562 17.070312 45.152344 17.070312 45.328125 C 15.804688 46.046875 14.5625 46.785156 13.375 47.558594 C 12.703125 51.683594 12.34375 55.953125 12.34375 60.335938 C 12.34375 66.769531 13.113281 72.980469 14.535156 78.8125 C 14.539062 78.820312 14.539062 78.828125 14.542969 78.835938 C 14.082031 78.550781 13.632812 78.257812 13.1875 77.960938 C 13.113281 77.914062 13.035156 77.867188 12.960938 77.816406 C 12.171875 77.292969 11.402344 76.75 10.652344 76.199219 C 10.515625 76.097656 10.378906 75.996094 10.242188 75.894531 C 9.519531 75.351562 8.8125 74.800781 8.128906 74.234375 C 8.105469 74.21875 8.078125 74.199219 8.054688 74.179688 C 7.777344 73.609375 7.507812 73.03125 7.242188 72.449219 C 7.164062 72.273438 7.089844 72.097656 7.011719 71.921875 C 6.835938 71.519531 6.660156 71.117188 6.492188 70.710938 C 6.394531 70.476562 6.300781 70.238281 6.203125 70.003906 C 6.0625 69.648438 5.921875 69.296875 5.785156 68.941406 C 5.6875 68.683594 5.59375 68.425781 5.5 68.164062 C 5.371094 67.820312 5.25 67.476562 5.128906 67.128906 C 5.035156 66.863281 4.945312 66.597656 4.855469 66.332031 C 4.742188 65.984375 4.628906 65.628906 4.519531 65.277344 C 4.433594 65.011719 4.351562 64.75 4.273438 64.488281 C 4.160156 64.113281 4.054688 63.734375 3.949219 63.359375 C 3.882812 63.113281 3.8125 62.867188 3.746094 62.621094 C 3.625 62.167969 3.511719 61.710938 3.402344 61.253906 C 3.359375 61.078125 3.3125 60.90625 3.273438 60.730469 C 3.128906 60.109375 2.992188 59.480469 2.863281 58.851562 C 2.859375 58.820312 2.851562 58.792969 2.84375 58.761719 C 2.835938 58.714844 2.828125 58.667969 2.820312 58.621094 C 2.785156 58.453125 2.757812 58.277344 2.722656 58.105469 C 2.648438 57.714844 2.574219 57.320312 2.507812 56.925781 C 2.503906 56.898438 2.496094 56.871094 2.492188 56.84375 C 2.453125 56.625 2.421875 56.402344 2.386719 56.183594 C 2.371094 56.09375 2.359375 56 2.34375 55.910156 C 2.296875 55.609375 2.253906 55.308594 2.210938 55.007812 C 2.203125 54.96875 2.195312 54.925781 2.191406 54.882812 C 2.15625 54.621094 2.121094 54.355469 2.089844 54.089844 C 2.082031 54.027344 2.074219 53.964844 2.066406 53.902344 C 2.03125 53.617188 2 53.335938 1.96875 53.050781 C 1.960938 52.996094 1.953125 52.941406 1.949219 52.886719 C 1.917969 52.609375 1.890625 52.332031 1.867188 52.054688 C 1.859375 52.011719 1.859375 51.964844 1.855469 51.917969 C 1.828125 51.628906 1.804688 51.335938 1.78125 51.046875 C 1.777344 50.976562 1.769531 50.90625 1.765625 50.832031 C 1.742188 50.5625 1.722656 50.296875 1.707031 50.027344 C 1.703125 49.996094 1.703125 49.964844 1.703125 49.933594 C 1.683594 49.617188 1.667969 49.300781 1.65625 48.984375 C 1.648438 48.878906 1.644531 48.777344 1.640625 48.671875 C 1.628906 48.445312 1.617188 48.21875 1.609375 47.992188 C 1.609375 47.964844 1.609375 47.9375 1.609375 47.910156 C 1.597656 47.59375 1.597656 47.277344 1.59375 46.960938 C 1.585938 46.617188 1.574219 46.28125 1.574219 45.9375 C 1.574219 36.722656 3.492188 27.992188 6.929688 20.136719 C 6.957031 20.074219 6.984375 20.011719 7.011719 19.949219 C 7.347656 19.191406 7.691406 18.433594 8.054688 17.691406 C 20.464844 7.417969 39.492188 0.855469 60.820312 0.855469 C 81.449219 0.855469 99.921875 7.011719 112.332031 16.71875 C 112.746094 17.042969 113.175781 17.359375 113.574219 17.691406 C 113.867188 18.289062 114.148438 18.890625 114.421875 19.5 C 114.457031 19.578125 114.492188 19.65625 114.523438 19.734375 C 114.777344 20.296875 115.019531 20.867188 115.253906 21.4375 C 115.261719 21.453125 115.265625 21.472656 115.273438 21.488281 C 118.351562 28.992188 120.054688 37.25 120.054688 45.9375 C 120.054688 46.625 120.042969 47.308594 120.019531 47.992188 C 120.011719 48.21875 120 48.445312 119.992188 48.671875 C 119.972656 49.125 119.953125 49.578125 119.921875 50.027344 C 119.90625 50.296875 119.886719 50.5625 119.867188 50.832031 C 119.835938 51.242188 119.800781 51.648438 119.765625 52.054688 C 119.738281 52.332031 119.710938 52.609375 119.679688 52.882812 C 119.640625 53.289062 119.59375 53.6875 119.542969 54.089844 C 119.507812 54.351562 119.476562 54.617188 119.4375 54.882812 C 119.378906 55.316406 119.3125 55.75 119.246094 56.179688 C 119.210938 56.402344 119.179688 56.621094 119.140625 56.839844 C 119.042969 57.421875 118.9375 57.996094 118.824219 58.570312 C 118.820312 58.585938 118.816406 58.605469 118.8125 58.621094 C 118.808594 58.640625 118.808594 58.65625 118.804688 58.675781 C 118.796875 58.703125 118.792969 58.730469 118.789062 58.757812 C 118.519531 60.097656 118.207031 61.421875 117.859375 62.726562 C 117.835938 62.8125 117.8125 62.894531 117.789062 62.980469 C 117.640625 63.527344 117.484375 64.070312 117.320312 64.613281 C 117.277344 64.753906 117.234375 64.890625 117.191406 65.03125 C 117.042969 65.519531 116.886719 66.007812 116.722656 66.488281 C 116.671875 66.640625 116.621094 66.792969 116.566406 66.945312 C 116.40625 67.421875 116.234375 67.894531 116.0625 68.363281 C 116.007812 68.507812 115.957031 68.652344 115.902344 68.796875 C 115.714844 69.292969 115.519531 69.789062 115.316406 70.285156 C 115.273438 70.386719 115.234375 70.488281 115.191406 70.59375 C 114.6875 71.808594 114.148438 73.003906 113.574219 74.175781 C 113.5 74.238281 113.421875 74.296875 113.347656 74.359375 C 112.753906 74.84375 112.140625 75.320312 111.515625 75.792969 C 111.304688 75.953125 111.09375 76.113281 110.875 76.269531 C 110.164062 76.792969 109.433594 77.308594 108.683594 77.808594 C 108.605469 77.859375 108.519531 77.914062 108.4375 77.964844 C 107.996094 78.257812 107.550781 78.550781 107.097656 78.835938 C 107.097656 78.824219 107.101562 78.816406 107.101562 78.804688 C 108.523438 72.976562 109.285156 66.765625 109.285156 60.335938 C 109.289062 55.953125 108.929688 51.683594 108.257812 47.558594 Z M 14.773438 235.753906 L 50.289062 250.777344 L 49.488281 221.046875 C 44.023438 221.609375 21.363281 229.003906 14.773438 235.753906 Z M 72.28125 218.636719 C 72.191406 222.648438 72.710938 250.136719 72.710938 250.136719 L 115.78125 229.351562 L 120.054688 220.992188 C 119.980469 220.976562 86.53125 218.027344 72.28125 218.636719 Z M 72.28125 218.636719 " fill-opacity="1" fill-rule="nonzero"/></g></g></g></g><g mask="url(#c3a39406fa)"><g transform="matrix(1, 0, 0, 1, 77, 174)"><g clip-path="url(#b11e8b9f21)"><g clip-path="url(#e7a357acda)"><path fill="#000000" d="M 103.5 10.992188 C 89.136719 10.160156 79.097656 6.972656 72.628906 3.953125 C 81.585938 6.066406 92.761719 7.152344 103.5 7.484375 Z M 158.519531 3.308594 L 159.289062 4.0625 L 159.289062 0.546875 C 158.964844 0.699219 158.636719 0.851562 158.292969 1 C 158.15625 1.109375 158.007812 1.222656 157.851562 1.339844 C 153.242188 4.792969 141.105469 11.882812 118.132812 13.160156 L 118.132812 16.339844 C 143.164062 14.886719 155.046875 6.265625 157.851562 3.90625 C 158.28125 3.542969 158.5 3.324219 158.519531 3.308594 Z M 159.289062 9.726562 L 159.289062 5.535156 C 158.933594 5.839844 158.457031 6.230469 157.851562 6.683594 C 153.242188 10.136719 141.105469 17.226562 118.136719 18.507812 L 118.136719 23.085938 C 147.9375 21.402344 159.289062 9.726562 159.289062 9.726562 Z M 118.132812 7.484375 L 118.132812 10.992188 C 132.496094 10.160156 142.539062 6.972656 149.007812 3.953125 C 140.050781 6.066406 128.871094 7.152344 118.132812 7.484375 Z M 63.785156 3.90625 C 66.585938 6.261719 78.46875 14.886719 103.5 16.335938 L 103.5 13.160156 C 80.53125 11.882812 68.394531 4.789062 63.785156 1.339844 C 63.628906 1.222656 63.480469 1.109375 63.339844 1 C 63 0.851562 62.671875 0.699219 62.347656 0.546875 L 62.347656 4.0625 L 63.121094 3.3125 C 63.136719 3.328125 63.355469 3.542969 63.785156 3.90625 Z M 208.210938 71.089844 C 208.207031 71.078125 208.199219 71.070312 208.195312 71.058594 C 207.910156 70.566406 207.621094 70.070312 207.332031 69.574219 C 207.292969 69.511719 207.253906 69.445312 207.21875 69.378906 C 206.628906 68.382812 206.03125 67.382812 205.417969 66.390625 C 205.378906 66.324219 205.339844 66.261719 205.300781 66.195312 C 204.992188 65.695312 204.679688 65.195312 204.367188 64.695312 C 204.363281 64.691406 204.359375 64.683594 204.355469 64.675781 C 204.046875 64.191406 203.742188 63.710938 203.429688 63.230469 C 203.390625 63.167969 203.351562 63.101562 203.308594 63.039062 C 203 62.558594 202.6875 62.082031 202.371094 61.605469 C 202.332031 61.546875 202.292969 61.488281 202.253906 61.429688 C 201.957031 60.984375 201.65625 60.539062 201.355469 60.097656 C 201.324219 60.054688 201.292969 60.007812 201.261719 59.960938 C 200.949219 59.503906 200.632812 59.046875 200.3125 58.597656 C 200.253906 58.511719 200.191406 58.425781 200.132812 58.339844 C 199.808594 57.882812 199.484375 57.425781 199.15625 56.976562 C 198.925781 56.664062 198.699219 56.355469 198.46875 56.050781 C 198.382812 55.929688 198.289062 55.8125 198.199219 55.691406 C 198.128906 55.597656 198.058594 55.503906 197.988281 55.410156 C 197.6875 55.015625 197.390625 54.625 197.089844 54.242188 C 197.070312 54.21875 197.050781 54.195312 197.03125 54.171875 C 196.988281 54.113281 196.941406 54.058594 196.894531 54 C 196.609375 53.636719 196.324219 53.28125 196.035156 52.929688 C 195.960938 52.839844 195.890625 52.75 195.816406 52.660156 C 195.503906 52.277344 195.1875 51.902344 194.875 51.535156 C 194.796875 51.445312 194.722656 51.359375 194.644531 51.269531 C 194.367188 50.949219 194.09375 50.636719 193.816406 50.328125 C 193.75 50.257812 193.6875 50.183594 193.625 50.113281 C 193.308594 49.765625 192.996094 49.425781 192.679688 49.09375 C 192.589844 49 192.5 48.90625 192.414062 48.8125 C 192.109375 48.496094 191.804688 48.1875 191.5 47.882812 C 191.476562 47.863281 191.457031 47.839844 191.433594 47.816406 C 167.222656 23.902344 139.148438 26.699219 139.148438 26.699219 L 139.148438 21.265625 C 138.675781 21.394531 138.199219 21.523438 137.707031 21.652344 C 133.625 22.695312 128.914062 23.5625 123.535156 24.109375 L 123.535156 67.871094 C 132.136719 68.65625 140.664062 70.269531 149.003906 72.90625 C 157.179688 75.492188 164.996094 79.339844 172.5 83.464844 C 175.441406 85.082031 178.332031 86.789062 181.191406 88.546875 L 185.578125 78.789062 L 179.375 116.546875 L 179.085938 118.3125 L 186.277344 114.601562 C 186.363281 114.335938 186.453125 114.070312 186.535156 113.800781 C 186.636719 113.476562 186.765625 113.085938 186.90625 112.660156 C 188.121094 109.019531 190.691406 101.960938 192.800781 96.230469 C 193.824219 96.964844 194.839844 97.707031 195.847656 98.464844 C 198.3125 100.316406 200.765625 102.257812 203.1875 104.261719 C 203.59375 104.59375 204 104.914062 204.402344 105.25 L 221.074219 96.652344 C 221.074219 96.652344 215.78125 84.226562 208.210938 71.089844 Z M 114.238281 33.472656 L 112.257812 33.472656 L 112.257812 152.792969 L 120.65625 148.460938 L 120.65625 24.367188 C 118.605469 24.523438 116.472656 24.636719 114.238281 24.691406 Z M 83.925781 21.652344 C 88.011719 22.695312 92.722656 23.5625 98.101562 24.109375 L 98.101562 68.339844 C 95.6875 68.421875 92.628906 68.347656 90.574219 68.609375 C 75.25 70.570312 59.96875 73.742188 45.414062 78.992188 C 43.140625 79.8125 40.851562 80.707031 38.574219 81.664062 L 36.058594 75.992188 L 36.988281 82.34375 C 36.9375 82.367188 36.882812 82.390625 36.828125 82.414062 C 36.992188 83.175781 37.175781 84.042969 37.375 84.980469 L 41.980469 116.398438 L 42.238281 118.152344 L 34.867188 114.351562 C 34.558594 113.8125 34.132812 113.039062 33.625 112.089844 C 30.871094 106.9375 25.652344 96.558594 22.75 89.964844 C 18.285156 92.90625 14.15625 96.289062 10.613281 100.214844 C 10.28125 100.582031 9.945312 100.949219 9.625 101.324219 L 0.5625 96.648438 C 0.5625 96.648438 3.351562 90.101562 7.777344 81.488281 C 7.773438 81.488281 7.773438 81.488281 7.773438 81.488281 C 7.785156 81.464844 7.800781 81.441406 7.8125 81.417969 C 8.148438 80.757812 8.496094 80.089844 8.855469 79.410156 C 8.859375 79.402344 8.863281 79.394531 8.867188 79.386719 C 9.230469 78.695312 9.601562 77.992188 9.984375 77.277344 C 9.996094 77.257812 10.007812 77.238281 10.015625 77.21875 C 10.789062 75.78125 11.597656 74.304688 12.4375 72.816406 C 12.449219 72.796875 12.460938 72.773438 12.472656 72.753906 C 12.875 72.042969 13.285156 71.328125 13.699219 70.613281 C 13.734375 70.550781 13.773438 70.484375 13.808594 70.421875 C 14.203125 69.738281 14.609375 69.054688 15.015625 68.371094 C 15.058594 68.296875 15.105469 68.222656 15.148438 68.148438 C 15.5625 67.457031 15.984375 66.761719 16.410156 66.070312 C 16.441406 66.019531 16.472656 65.96875 16.503906 65.921875 C 16.953125 65.191406 17.410156 64.46875 17.871094 63.746094 C 17.894531 63.707031 17.921875 63.667969 17.945312 63.628906 C 18.386719 62.941406 18.832031 62.261719 19.28125 61.582031 C 19.332031 61.503906 19.386719 61.421875 19.441406 61.34375 C 19.871094 60.699219 20.300781 60.0625 20.738281 59.429688 C 20.796875 59.34375 20.859375 59.257812 20.917969 59.171875 C 21.359375 58.535156 21.808594 57.90625 22.257812 57.285156 C 22.304688 57.21875 22.351562 57.15625 22.398438 57.089844 C 22.882812 56.421875 23.371094 55.765625 23.863281 55.125 C 23.886719 55.09375 23.910156 55.0625 23.933594 55.03125 C 24.410156 54.410156 24.890625 53.800781 25.375 53.203125 C 25.429688 53.136719 25.484375 53.066406 25.542969 53 C 26 52.4375 26.457031 51.886719 26.917969 51.351562 C 26.980469 51.277344 27.046875 51.207031 27.109375 51.132812 C 27.191406 51.039062 27.273438 50.941406 27.355469 50.847656 C 27.738281 50.410156 28.121094 49.988281 28.507812 49.570312 C 28.558594 49.515625 28.609375 49.457031 28.664062 49.402344 C 29.167969 48.863281 29.671875 48.34375 30.175781 47.84375 C 30.183594 47.835938 30.191406 47.824219 30.203125 47.816406 C 54.414062 23.902344 82.484375 26.699219 82.488281 26.699219 L 82.488281 21.261719 C 82.960938 21.394531 83.433594 21.523438 83.925781 21.652344 Z M 79.113281 45.914062 C 79.113281 45.914062 78.167969 45.769531 76.488281 45.613281 C 75.644531 45.519531 74.632812 45.527344 73.453125 45.5 C 72.277344 45.476562 70.960938 45.574219 69.515625 45.667969 C 68.078125 45.824219 66.511719 45.992188 64.882812 46.320312 C 64.058594 46.453125 63.226562 46.652344 62.378906 46.859375 C 61.523438 47.046875 60.660156 47.289062 59.792969 47.554688 C 58.914062 47.804688 58.035156 48.089844 57.15625 48.417969 C 56.714844 48.574219 56.269531 48.734375 55.820312 48.894531 C 55.382812 49.066406 54.945312 49.261719 54.503906 49.441406 C 53.617188 49.808594 52.730469 50.1875 51.867188 50.625 C 50.988281 51.039062 50.128906 51.496094 49.269531 51.953125 C 48.410156 52.40625 47.59375 52.933594 46.753906 53.417969 C 45.925781 53.921875 45.132812 54.46875 44.339844 55.003906 C 43.558594 55.554688 42.777344 56.09375 42.050781 56.683594 C 41.304688 57.253906 40.582031 57.828125 39.902344 58.429688 C 37.132812 60.785156 34.828125 63.285156 33.035156 65.554688 C 31.246094 67.832031 29.972656 69.886719 29.1875 71.378906 C 28.785156 72.117188 28.519531 72.734375 28.332031 73.140625 C 28.148438 73.554688 28.070312 73.785156 28.070312 73.785156 C 28.070312 73.785156 28.800781 73.148438 30.078125 72.101562 C 31.347656 71.050781 33.171875 69.589844 35.367188 67.914062 C 36.472656 67.078125 37.664062 66.1875 38.941406 65.273438 C 40.214844 64.359375 41.566406 63.421875 42.980469 62.480469 C 44.386719 61.53125 45.878906 60.613281 47.382812 59.675781 C 48.90625 58.769531 50.449219 57.84375 52.035156 57 C 52.824219 56.570312 53.605469 56.128906 54.410156 55.734375 C 54.808594 55.53125 55.207031 55.332031 55.601562 55.117188 C 56 54.925781 56.398438 54.730469 56.796875 54.535156 C 58.390625 53.761719 59.972656 53.023438 61.527344 52.355469 C 61.917969 52.1875 62.296875 52.011719 62.683594 51.851562 C 63.070312 51.703125 63.453125 51.546875 63.832031 51.386719 C 64.210938 51.226562 64.582031 51.070312 64.953125 50.917969 C 65.328125 50.773438 65.699219 50.632812 66.0625 50.492188 C 67.515625 49.902344 68.921875 49.417969 70.21875 48.929688 C 70.871094 48.703125 71.5 48.488281 72.097656 48.28125 C 72.695312 48.0625 73.265625 47.867188 73.808594 47.699219 C 74.890625 47.355469 75.832031 46.996094 76.621094 46.761719 C 78.199219 46.257812 79.113281 45.914062 79.113281 45.914062 Z M 107.394531 33.472656 L 109.378906 33.472656 L 109.378906 152.792969 L 100.980469 148.460938 L 100.980469 24.367188 C 103.027344 24.523438 105.164062 24.632812 107.394531 24.691406 Z M 102.300781 48.875 L 103.378906 141.480469 L 109.136719 141.414062 L 108.058594 48.808594 Z M 103.5 23.085938 L 103.5 18.507812 C 80.53125 17.226562 68.394531 10.136719 63.785156 6.683594 C 63.179688 6.230469 62.699219 5.839844 62.347656 5.53125 L 62.347656 9.726562 C 62.347656 9.726562 73.699219 21.402344 103.5 23.085938 Z M 103.5 23.085938 " fill-opacity="1" fill-rule="nonzero"/></g></g></g></g><g mask="url(#4f8d2da0cc)"><g transform="matrix(1, 0, 0, 1, 84, 194)"><g clip-path="url(#8e4142237c)"><g clip-path="url(#e2dcffe855)"><path fill="#000000" d="M 100.394531 13.472656 L 102.378906 13.472656 L 102.378906 26.453125 C 98.691406 25.984375 95.503906 25.574219 94.972656 25.484375 C 94.789062 25.453125 94.375 25.304688 93.980469 25.152344 L 93.980469 4.367188 C 96.027344 4.523438 98.164062 4.636719 100.394531 4.691406 Z M 75.488281 1.265625 L 75.488281 6.699219 C 75.488281 6.699219 47.414062 3.90625 23.203125 27.816406 C 23.191406 27.828125 23.183594 27.835938 23.175781 27.84375 C 22.667969 28.34375 22.164062 28.867188 21.664062 29.402344 C 21.609375 29.460938 21.558594 29.519531 21.507812 29.574219 C 21.039062 30.078125 20.574219 30.597656 20.109375 31.132812 C 20.042969 31.207031 19.980469 31.28125 19.917969 31.351562 C 19.457031 31.890625 18.996094 32.4375 18.539062 33 C 18.484375 33.070312 18.429688 33.136719 18.371094 33.207031 C 17.890625 33.800781 17.410156 34.410156 16.933594 35.035156 C 16.910156 35.066406 16.886719 35.09375 16.863281 35.125 C 16.371094 35.769531 15.882812 36.425781 15.398438 37.089844 C 15.351562 37.15625 15.304688 37.222656 15.257812 37.285156 C 14.808594 37.90625 14.359375 38.539062 13.917969 39.175781 C 13.855469 39.261719 13.796875 39.347656 13.738281 39.433594 C 13.300781 40.0625 12.867188 40.703125 12.4375 41.347656 C 12.386719 41.425781 12.332031 41.503906 12.28125 41.585938 C 11.832031 42.261719 11.386719 42.945312 10.945312 43.632812 C 10.917969 43.671875 10.894531 43.710938 10.871094 43.75 C 10.410156 44.46875 9.953125 45.195312 9.503906 45.921875 C 9.472656 45.972656 9.441406 46.023438 9.410156 46.070312 C 8.984375 46.761719 8.5625 47.457031 8.148438 48.152344 C 8.101562 48.226562 8.058594 48.300781 8.015625 48.375 C 7.609375 49.058594 7.203125 49.742188 6.808594 50.425781 C 6.769531 50.488281 6.734375 50.550781 6.699219 50.613281 C 6.285156 51.328125 5.875 52.042969 5.472656 52.753906 C 5.460938 52.777344 5.449219 52.796875 5.4375 52.820312 C 4.597656 54.308594 3.789062 55.78125 3.015625 57.222656 C 3.003906 57.242188 2.996094 57.261719 2.984375 57.28125 C 2.601562 57.992188 2.230469 58.695312 1.863281 59.390625 C 1.859375 59.398438 1.859375 59.402344 1.855469 59.410156 C 1.484375 60.117188 1.125 60.808594 0.773438 61.492188 C 1.390625 60.679688 2.902344 58.777344 5.226562 56.195312 C 16.699219 43.449219 48.132812 14.03125 91.101562 15.949219 L 91.101562 4.109375 C 85.722656 3.5625 81.011719 2.695312 76.925781 1.652344 C 76.433594 1.523438 75.960938 1.394531 75.488281 1.265625 Z M 201.195312 51.058594 C 200.910156 50.566406 200.621094 50.070312 200.332031 49.574219 C 200.292969 49.511719 200.253906 49.445312 200.21875 49.378906 C 199.628906 48.382812 199.03125 47.382812 198.417969 46.390625 C 198.378906 46.324219 198.339844 46.261719 198.300781 46.195312 C 197.992188 45.695312 197.679688 45.195312 197.367188 44.695312 C 197.363281 44.691406 197.359375 44.683594 197.355469 44.675781 C 197.046875 44.191406 196.742188 43.710938 196.429688 43.230469 C 196.390625 43.167969 196.351562 43.101562 196.308594 43.039062 C 196 42.558594 195.6875 42.082031 195.371094 41.605469 C 195.332031 41.546875 195.292969 41.488281 195.253906 41.429688 C 194.957031 40.984375 194.65625 40.539062 194.355469 40.097656 C 194.324219 40.054688 194.292969 40.007812 194.261719 39.960938 C 193.949219 39.503906 193.632812 39.046875 193.3125 38.597656 C 193.253906 38.511719 193.191406 38.425781 193.132812 38.339844 C 192.496094 37.441406 191.851562 36.554688 191.199219 35.691406 C 191.128906 35.597656 191.058594 35.503906 190.988281 35.410156 C 190.671875 34.992188 190.351562 34.578125 190.03125 34.171875 C 189.988281 34.113281 189.941406 34.058594 189.894531 34 C 189.609375 33.636719 189.324219 33.28125 189.035156 32.925781 C 188.960938 32.839844 188.890625 32.75 188.816406 32.660156 C 188.503906 32.277344 188.1875 31.902344 187.875 31.535156 C 187.796875 31.445312 187.722656 31.359375 187.644531 31.269531 C 187.367188 30.949219 187.09375 30.636719 186.816406 30.324219 C 186.75 30.253906 186.6875 30.183594 186.625 30.113281 C 186.308594 29.765625 185.996094 29.425781 185.679688 29.09375 C 185.589844 29 185.5 28.90625 185.414062 28.8125 C 185.109375 28.496094 184.804688 28.183594 184.5 27.882812 C 184.476562 27.863281 184.457031 27.839844 184.433594 27.816406 C 160.222656 3.902344 132.148438 6.699219 132.148438 6.699219 L 132.148438 1.265625 C 131.675781 1.394531 131.199219 1.523438 130.707031 1.648438 C 126.625 2.691406 121.914062 3.5625 116.535156 4.109375 L 116.535156 16.757812 C 126.125 17.113281 166.738281 20.242188 197.429688 47.554688 C 198.707031 48.691406 199.972656 49.863281 201.210938 51.085938 C 201.207031 51.078125 201.199219 51.070312 201.195312 51.058594 Z M 107.238281 13.472656 L 105.257812 13.472656 L 105.257812 26.816406 C 108.574219 27.234375 111.847656 27.644531 113.65625 27.867188 L 113.65625 4.367188 C 111.605469 4.523438 109.472656 4.636719 107.238281 4.691406 Z M 107.238281 13.472656 " fill-opacity="1" fill-rule="nonzero"/></g></g></g></g><path fill="#000000" d="M 242.417969 149.398438 L 242.894531 149.003906 L 243.167969 148.445312 C 247.660156 139.257812 249.9375 129.332031 249.9375 118.9375 C 249.9375 108.542969 247.660156 98.613281 243.167969 89.429688 L 242.894531 88.871094 L 242.417969 88.472656 C 228.980469 77.355469 209.082031 70.976562 187.816406 70.976562 C 166.554688 70.976562 146.65625 77.355469 133.21875 88.472656 L 132.742188 88.871094 L 132.46875 89.429688 C 127.976562 98.613281 125.699219 108.542969 125.699219 118.9375 C 125.699219 129.332031 127.976562 139.257812 132.46875 148.445312 L 132.742188 149.003906 L 133.21875 149.398438 C 146.65625 160.515625 166.554688 166.894531 187.816406 166.894531 C 209.082031 166.894531 228.980469 160.519531 242.417969 149.398438 Z M 140.1875 150.960938 C 140.113281 150.914062 140.035156 150.867188 139.960938 150.816406 C 139.171875 150.292969 138.402344 149.75 137.652344 149.195312 C 137.515625 149.097656 137.378906 148.992188 137.242188 148.890625 C 136.519531 148.351562 135.8125 147.800781 135.128906 147.234375 C 135.105469 147.214844 135.078125 147.199219 135.054688 147.179688 C 134.773438 146.609375 134.503906 146.03125 134.242188 145.449219 C 134.164062 145.273438 134.089844 145.09375 134.011719 144.917969 C 133.835938 144.519531 133.660156 144.117188 133.488281 143.710938 C 133.390625 143.476562 133.300781 143.238281 133.203125 143.003906 C 133.0625 142.648438 132.921875 142.296875 132.785156 141.9375 C 132.6875 141.683594 132.59375 141.421875 132.496094 141.164062 C 132.371094 140.820312 132.25 140.476562 132.128906 140.128906 C 132.035156 139.863281 131.945312 139.597656 131.855469 139.332031 C 131.738281 138.980469 131.628906 138.628906 131.515625 138.277344 C 131.433594 138.011719 131.351562 137.75 131.273438 137.484375 C 131.160156 137.113281 131.054688 136.734375 130.949219 136.355469 C 130.882812 136.113281 130.8125 135.867188 130.746094 135.621094 C 130.625 135.167969 130.511719 134.710938 130.402344 134.253906 C 130.359375 134.078125 130.3125 133.90625 130.273438 133.730469 C 130.125 133.109375 129.992188 132.480469 129.863281 131.851562 C 129.855469 131.820312 129.851562 131.789062 129.84375 131.761719 C 129.835938 131.714844 129.828125 131.667969 129.816406 131.621094 C 129.785156 131.449219 129.753906 131.277344 129.722656 131.105469 C 129.648438 130.714844 129.574219 130.320312 129.507812 129.925781 C 129.5 129.898438 129.496094 129.871094 129.492188 129.84375 C 129.453125 129.621094 129.421875 129.402344 129.386719 129.183594 C 129.371094 129.089844 129.359375 129 129.34375 128.910156 C 129.296875 128.609375 129.25 128.308594 129.210938 128.007812 C 129.203125 127.964844 129.195312 127.925781 129.191406 127.882812 C 129.152344 127.621094 129.121094 127.355469 129.085938 127.089844 C 129.082031 127.027344 129.074219 126.964844 129.066406 126.902344 C 129.03125 126.617188 128.996094 126.335938 128.96875 126.046875 C 128.960938 125.992188 128.953125 125.9375 128.949219 125.886719 C 128.917969 125.609375 128.890625 125.332031 128.863281 125.054688 C 128.859375 125.007812 128.859375 124.964844 128.851562 124.917969 C 128.828125 124.628906 128.804688 124.335938 128.78125 124.046875 C 128.777344 123.976562 128.769531 123.902344 128.761719 123.832031 C 128.742188 123.5625 128.722656 123.296875 128.707031 123.027344 C 128.703125 122.996094 128.703125 122.964844 128.699219 122.933594 C 128.679688 122.617188 128.667969 122.300781 128.652344 121.984375 C 128.648438 121.878906 128.644531 121.777344 128.636719 121.671875 C 128.628906 121.445312 128.617188 121.21875 128.609375 120.988281 C 128.609375 120.964844 128.609375 120.933594 128.609375 120.90625 C 128.597656 120.59375 128.597656 120.273438 128.59375 119.960938 C 128.585938 119.617188 128.574219 119.277344 128.574219 118.9375 C 128.574219 109.722656 130.492188 100.992188 133.929688 93.132812 C 133.957031 93.074219 133.984375 93.011719 134.011719 92.949219 C 134.34375 92.1875 134.691406 91.433594 135.054688 90.691406 C 147.464844 80.417969 166.488281 73.851562 187.816406 73.851562 C 208.449219 73.851562 226.917969 80.011719 239.332031 89.714844 C 239.75 90.042969 240.175781 90.359375 240.578125 90.691406 C 244.722656 99.164062 247.054688 108.761719 247.054688 118.933594 C 247.054688 123.265625 246.628906 127.488281 245.824219 131.570312 C 245.820312 131.585938 245.816406 131.605469 245.8125 131.621094 C 245.808594 131.640625 245.808594 131.65625 245.804688 131.675781 C 245.53125 133.042969 245.214844 134.394531 244.859375 135.726562 C 244.835938 135.8125 244.8125 135.894531 244.789062 135.980469 C 244.640625 136.527344 244.484375 137.070312 244.320312 137.613281 C 244.277344 137.753906 244.234375 137.890625 244.191406 138.03125 C 244.042969 138.519531 243.886719 139.007812 243.722656 139.488281 C 243.671875 139.640625 243.621094 139.792969 243.566406 139.945312 C 243.40625 140.421875 243.234375 140.894531 243.0625 141.363281 C 243.007812 141.507812 242.957031 141.652344 242.902344 141.796875 C 242.714844 142.292969 242.519531 142.789062 242.316406 143.285156 C 242.273438 143.386719 242.234375 143.488281 242.191406 143.59375 C 241.6875 144.808594 241.152344 146.003906 240.578125 147.175781 C 240.503906 147.238281 240.421875 147.296875 240.347656 147.359375 C 239.753906 147.84375 239.140625 148.320312 238.515625 148.792969 C 238.304688 148.953125 238.09375 149.113281 237.875 149.269531 C 237.164062 149.792969 236.433594 150.308594 235.683594 150.808594 C 235.605469 150.859375 235.519531 150.914062 235.4375 150.964844 C 234.996094 151.257812 234.550781 151.550781 234.097656 151.835938 C 234.097656 151.824219 234.101562 151.816406 234.101562 151.804688 C 221.996094 159.371094 205.726562 164.011719 187.816406 164.011719 C 169.910156 164.011719 153.640625 159.371094 141.535156 151.808594 C 141.535156 151.816406 141.539062 151.824219 141.539062 151.835938 C 141.082031 151.550781 140.632812 151.257812 140.1875 150.960938 Z M 304.722656 260.878906 C 303.222656 257.664062 300.816406 252.671875 297.867188 247.144531 C 290.089844 232.546875 282.566406 221.613281 275.515625 214.648438 C 263.570312 202.847656 250.800781 196.75 240.070312 193.644531 C 242.113281 192.144531 243.226562 191.046875 243.507812 190.761719 L 246.367188 187.824219 L 246.367188 180.207031 C 247.125 179.625 247.832031 179.019531 248.484375 178.386719 C 266.203125 161.179688 268.472656 137.578125 268.472656 118.9375 C 268.472656 96.640625 260.160156 75.652344 245.0625 59.835938 C 229.804688 43.851562 209.476562 35.046875 187.816406 35.046875 C 166.160156 35.046875 145.828125 43.851562 130.574219 59.835938 C 115.476562 75.652344 107.160156 96.640625 107.160156 118.9375 C 107.160156 137.578125 109.433594 161.179688 127.148438 178.386719 C 127.804688 179.019531 128.507812 179.628906 129.265625 180.207031 L 129.265625 187.824219 L 132.128906 190.761719 C 132.40625 191.046875 133.519531 192.144531 135.566406 193.644531 C 124.835938 196.753906 112.066406 202.847656 100.117188 214.648438 C 83.640625 230.925781 68.90625 265.246094 68.285156 266.699219 L 64.617188 275.316406 L 187.816406 338.878906 L 310.585938 274.597656 C 310.585938 274.597656 308.097656 268.109375 304.722656 260.878906 Z M 120.117188 118.9375 C 120.117188 99.347656 127.695312 81.617188 139.949219 68.78125 C 152.199219 55.945312 169.125 48.007812 187.816406 48.007812 C 206.511719 48.007812 223.4375 55.945312 235.6875 68.78125 C 247.9375 81.617188 255.515625 99.347656 255.515625 118.9375 C 255.515625 138.523438 252.671875 156.253906 239.457031 169.089844 C 232.847656 175.507812 210.332031 178.71875 187.816406 178.71875 C 165.300781 178.71875 142.785156 175.507812 136.175781 169.089844 C 122.960938 156.253906 120.117188 138.523438 120.117188 118.9375 Z M 180.5 187.160156 C 182.832031 187.289062 185.261719 187.367188 187.816406 187.367188 C 190.375 187.367188 192.804688 187.289062 195.132812 187.160156 C 218.105469 185.882812 230.242188 178.789062 234.851562 175.339844 L 234.851562 177.90625 C 232.046875 180.265625 220.164062 188.886719 195.132812 190.335938 C 192.804688 190.472656 190.378906 190.554688 187.816406 190.554688 C 185.257812 190.554688 182.828125 190.472656 180.5 190.335938 C 155.46875 188.886719 143.585938 180.261719 140.785156 177.90625 L 140.785156 175.339844 C 145.394531 178.789062 157.53125 185.882812 180.5 187.160156 Z M 149.628906 177.953125 C 158.585938 180.066406 169.765625 181.152344 180.5 181.484375 C 182.972656 181.558594 185.425781 181.597656 187.820312 181.597656 C 190.210938 181.597656 192.660156 181.558594 195.136719 181.484375 C 205.871094 181.152344 217.050781 180.066406 226.007812 177.953125 C 219.539062 180.972656 209.496094 184.160156 195.136719 184.992188 C 192.804688 185.128906 190.378906 185.210938 187.820312 185.210938 C 185.257812 185.210938 182.828125 185.128906 180.5 184.992188 C 166.136719 184.160156 156.097656 180.972656 149.628906 177.953125 Z M 175.101562 209.949219 L 175.101562 321.011719 L 144.933594 306.109375 L 136.003906 301.699219 L 126.246094 279.714844 L 115.578125 255.667969 L 113.058594 249.992188 L 113.992188 256.347656 L 114.378906 258.984375 L 118.980469 290.402344 L 110.625 286.089844 L 87.613281 274.214844 L 79.421875 269.992188 C 80.734375 267.035156 84.355469 259.097656 89.226562 250.195312 C 94.527344 240.5 101.308594 229.664062 108.214844 222.839844 C 127.222656 204.066406 148.441406 202.039062 156.679688 202.039062 C 158.371094 202.039062 159.335938 202.132812 159.347656 202.132812 L 160.925781 202.289062 L 160.925781 195.648438 C 165.011719 196.691406 169.722656 197.5625 175.101562 198.109375 Z M 186.378906 220.453125 L 186.378906 325.175781 L 177.980469 320.84375 L 177.980469 198.367188 C 180.03125 198.523438 182.164062 198.632812 184.394531 198.691406 L 184.394531 207.472656 L 186.378906 207.472656 Z M 180.5 195.640625 C 154.785156 194.144531 143.035156 185.058594 140.785156 183.09375 L 140.785156 180.683594 C 145.394531 184.136719 157.53125 191.226562 180.5 192.503906 C 182.832031 192.636719 185.261719 192.710938 187.816406 192.710938 C 190.375 192.710938 192.804688 192.636719 195.132812 192.503906 C 218.105469 191.226562 230.242188 184.136719 234.851562 180.683594 L 234.851562 183.097656 C 232.609375 185.070312 220.941406 194.152344 195.132812 195.640625 C 192.808594 195.777344 190.378906 195.855469 187.816406 195.855469 C 185.257812 195.855469 182.828125 195.777344 180.5 195.640625 Z M 197.65625 221.867188 L 197.65625 320.839844 L 189.257812 325.175781 L 189.257812 207.472656 L 191.238281 207.472656 L 191.238281 198.691406 C 193.472656 198.632812 195.605469 198.523438 197.65625 198.363281 Z M 280.191406 278.257812 L 263.910156 286.660156 L 256.375 290.546875 L 262.578125 252.789062 L 258.191406 262.546875 L 250.386719 279.921875 L 243.761719 294.660156 L 240.960938 300.890625 L 200.535156 319.890625 L 200.535156 198.109375 C 205.914062 197.5625 210.625 196.695312 214.710938 195.652344 L 214.710938 202.289062 L 216.289062 202.132812 C 216.300781 202.132812 217.265625 202.039062 218.957031 202.039062 C 227.195312 202.039062 248.414062 204.066406 267.421875 222.84375 C 272.316406 227.675781 277.144531 234.527344 281.429688 241.554688 C 288.753906 253.566406 294.488281 266.097656 296.214844 269.992188 Z M 280.191406 278.257812 " fill-opacity="1" fill-rule="nonzero"/></svg>